<svg width="2832" height="925" xmlns="http://www.w3.org/2000/svg" xmlns:xlink="http://www.w3.org/1999/xlink" xml:space="preserve" overflow="hidden"><g transform="translate(-861 -838)"><rect x="1213" y="887" width="2326" height="702" fill="#FFFFFF"/><path d="M861 1237.5C861 1043.37 1018.37 886 1212.5 886 1406.63 886 1564 1043.37 1564 1237.5 1564 1431.63 1406.63 1589 1212.5 1589 1018.37 1589 861 1431.63 861 1237.5Z" fill="#FFFFFF" fill-rule="evenodd"/><path d="M1230.33 1117.95C1214.92 1117.95 1201.38 1122.68 1189.71 1132.14 1178.04 1141.6 1168.36 1153.92 1160.65 1169.09 1152.94 1184.27 1147.22 1200.99 1143.48 1219.24 1139.73 1237.5 1137.86 1255.21 1137.86 1272.37 1137.86 1294.36 1140.94 1311.96 1147.11 1325.16 1153.27 1338.35 1161.86 1344.95 1172.87 1344.95 1184.76 1344.95 1196.54 1337.91 1208.21 1323.84 1219.88 1309.76 1230.44 1291.5 1239.91 1269.07 1249.38 1246.63 1256.97 1222.54 1262.7 1196.81 1268.42 1171.07 1271.29 1146.77 1271.29 1123.89 1260.72 1119.93 1247.07 1117.95 1230.33 1117.95ZM1224.32 996.027C1257.53 995.594 1286.95 1000.38 1312.57 1010.39 1341.85 1021.83 1366.29 1037.89 1385.88 1058.56 1405.48 1079.24 1420.23 1102.44 1430.14 1128.18 1440.05 1153.92 1445 1179.98 1445 1206.38 1445 1241.13 1439.94 1269.73 1429.81 1292.16 1419.68 1314.6 1407.13 1331.98 1392.16 1344.29 1377.19 1356.61 1361.89 1364.86 1346.25 1369.04 1330.62 1373.22 1317.3 1374.43 1306.29 1372.67 1291.32 1370.03 1280.09 1364.86 1272.61 1357.16 1265.12 1349.46 1260.39 1340.22 1258.41 1329.45 1256.42 1318.67 1256.2 1306.9 1257.75 1294.14 1259.29 1281.38 1261.16 1268.63 1263.36 1255.87 1249.71 1295.9 1234.52 1324.94 1217.78 1342.97 1201.05 1361.01 1182.34 1370.03 1161.64 1370.03 1143.15 1370.03 1126.85 1362.77 1112.76 1348.25 1098.67 1333.74 1091.63 1310.42 1091.63 1278.3 1091.63 1246.19 1097.57 1216.49 1109.46 1189.22 1121.35 1161.94 1138.85 1139.95 1161.97 1123.23 1185.09 1106.51 1213.38 1098.15 1246.85 1098.15 1256.97 1098.15 1268.64 1098.81 1281.85 1100.13 1295.06 1101.45 1307.17 1103.65 1318.18 1106.73 1314.66 1136.65 1310.92 1166.67 1306.95 1196.81 1302.99 1226.94 1300.13 1253.01 1298.37 1275.01 1297.49 1286.44 1297.38 1297.55 1298.04 1308.33 1298.7 1319.11 1300.9 1328.35 1304.64 1336.04 1308.38 1343.74 1314.22 1348.47 1322.15 1350.23 1334.47 1352.87 1346.36 1349.79 1357.81 1340.99 1369.26 1332.2 1378.73 1318.56 1386.21 1300.08 1393.7 1281.6 1397.66 1259.39 1398.1 1233.43 1399.43 1180.2 1391.5 1137.86 1374.33 1106.4 1357.15 1074.95 1333.7 1052.62 1303.98 1039.42 1274.26 1026.23 1241.12 1021.17 1204.57 1024.25 1168.47 1026.89 1137.42 1038.65 1111.44 1059.55 1085.46 1080.45 1065.54 1106.95 1051.67 1139.07 1037.79 1171.18 1030.86 1205.72 1030.86 1242.67 1030.86 1278.3 1036.14 1309.1 1046.71 1335.06 1057.28 1361.01 1071.59 1382.46 1089.65 1399.39 1107.7 1416.33 1128.17 1428.87 1151.07 1437.01 1173.97 1445.15 1197.75 1449.66 1222.41 1450.54 1237.82 1450.98 1254.66 1449.88 1272.94 1447.24 1291.21 1444.6 1309.6 1438.77 1328.09 1429.75 1346.58 1420.73 1363.54 1407.2 1378.95 1389.17L1394.8 1405.66C1373.67 1429.86 1348.46 1447.9 1319.17 1459.77 1289.89 1471.65 1257.86 1478.03 1223.07 1478.91 1182.56 1479.79 1147.11 1474.18 1116.73 1462.08 1086.34 1449.99 1061.02 1433.16 1040.77 1411.6 1020.51 1390.05 1005.32 1365.08 995.192 1336.7 985.064 1308.33 980 1278.3 980 1246.63 980 1218.91 984.624 1190.87 993.871 1162.49 1003.12 1134.12 1017.1 1107.72 1035.81 1083.31 1054.53 1058.89 1078.31 1038.87 1107.15 1023.26 1135.99 1007.64 1170.23 998.732 1209.86 996.532 1214.76 996.257 1219.58 996.089 1224.32 996.027Z" fill-rule="evenodd"/><text font-family="Lora,Lora_MSFontService,sans-serif" font-weight="400" font-size="440" transform="matrix(1 0 0 1 1543.17 1386)">everyone</text></g></svg>