<svg width="1408" height="1407" xmlns="http://www.w3.org/2000/svg" xmlns:xlink="http://www.w3.org/1999/xlink" xml:space="preserve" overflow="hidden"><defs><clipPath id="clip0"><rect x="1496" y="534" width="1408" height="1407"/></clipPath></defs><g clip-path="url(#clip0)" transform="translate(-1496 -534)"><path d="M1496 1237.5C1496 848.968 1811.19 534 2200 534 2588.81 534 2904 848.968 2904 1237.5 2904 1626.03 2588.81 1941 2200 1941 1811.19 1941 1496 1626.03 1496 1237.5Z" fill="#FFFFFF" fill-rule="evenodd"/><path d="M2235.67 998.156C2204.84 998.156 2177.76 1007.62 2154.42 1026.56 2131.09 1045.5 2111.71 1070.16 2096.3 1100.54 2080.89 1130.93 2069.44 1164.4 2061.95 1200.95 2054.47 1237.5 2050.72 1272.95 2050.72 1307.3 2050.72 1351.34 2056.89 1386.57 2069.22 1412.99 2081.55 1439.42 2098.72 1452.63 2120.74 1452.63 2144.52 1452.63 2168.08 1438.54 2191.41 1410.35 2214.75 1382.17 2235.89 1345.62 2254.82 1300.7 2273.76 1255.78 2288.95 1207.56 2300.4 1156.03 2311.85 1104.51 2317.57 1055.85 2317.57 1010.05 2296.43 1002.12 2269.13 998.156 2235.67 998.156ZM2223.64 754.054C2290.06 753.187 2348.89 762.772 2400.14 782.809 2458.7 805.709 2507.58 837.857 2546.77 879.253 2585.96 920.649 2615.46 967.109 2635.28 1018.63 2655.09 1070.16 2665 1122.34 2665 1175.19 2665 1244.77 2654.87 1302.02 2634.62 1346.94 2614.36 1391.86 2589.26 1426.65 2559.32 1451.31 2529.38 1475.97 2498.77 1492.48 2467.51 1500.85 2436.24 1509.22 2409.6 1511.64 2387.59 1508.12 2357.64 1502.83 2335.18 1492.48 2320.21 1477.07 2305.24 1461.66 2295.77 1443.16 2291.81 1421.58 2287.85 1400 2287.41 1376.44 2290.49 1350.9 2293.57 1325.36 2297.32 1299.82 2301.72 1274.27 2274.42 1354.42 2244.03 1412.55 2210.57 1448.67 2177.1 1484.78 2139.67 1502.83 2098.28 1502.83 2061.29 1502.83 2028.71 1488.3 2000.53 1459.23 1972.34 1430.17 1958.25 1383.49 1958.25 1319.19 1958.25 1254.9 1970.14 1195.45 1993.92 1140.84 2017.7 1086.23 2052.71 1042.19 2098.94 1008.73 2145.18 975.256 2201.76 958.521 2268.69 958.521 2288.95 958.521 2312.29 959.843 2338.71 962.485 2365.13 965.127 2389.35 969.531 2411.36 975.696 2404.32 1035.59 2396.83 1095.7 2388.91 1156.03 2380.98 1216.36 2375.26 1268.55 2371.73 1312.59 2369.97 1335.49 2369.75 1357.73 2371.07 1379.31 2372.39 1400.88 2376.8 1419.38 2384.28 1434.79 2391.77 1450.21 2403.44 1459.68 2419.29 1463.2 2443.95 1468.48 2467.73 1462.32 2490.63 1444.7 2513.52 1427.09 2532.46 1399.78 2547.43 1362.79 2562.4 1325.8 2570.33 1281.32 2571.21 1229.36 2573.85 1122.78 2558 1038.01 2523.65 975.036 2489.3 912.061 2442.41 867.362 2382.96 840.94 2323.52 814.517 2257.24 804.388 2184.15 810.553 2111.93 815.838 2049.84 839.398 1997.88 881.235 1945.92 923.071 1906.07 976.137 1878.33 1040.43 1850.59 1104.73 1836.72 1173.87 1836.72 1247.85 1836.72 1319.19 1847.29 1380.85 1868.42 1432.81 1889.56 1484.78 1918.18 1527.71 1954.29 1561.62 1990.4 1595.53 2031.35 1620.63 2077.15 1636.93 2122.94 1653.22 2170.5 1662.25 2219.82 1664.01 2250.64 1664.89 2284.33 1662.69 2320.87 1657.41 2357.42 1652.12 2394.19 1640.45 2431.18 1622.4 2468.17 1604.34 2502.07 1577.26 2532.9 1541.15L2564.6 1574.17C2522.33 1622.62 2471.91 1658.73 2413.35 1682.51 2354.78 1706.29 2290.71 1719.06 2221.14 1720.82 2140.11 1722.58 2069.22 1711.35 2008.45 1687.13 1947.69 1662.91 1897.05 1629.22 1856.53 1586.06 1816.02 1542.91 1785.64 1492.92 1765.38 1436.11 1745.13 1379.31 1735 1319.19 1735 1255.78 1735 1200.29 1744.25 1144.14 1762.74 1087.33 1781.24 1030.52 1809.2 977.678 1846.63 928.796 1884.06 879.914 1931.61 839.839 1989.3 808.572 2046.98 777.305 2115.45 759.469 2194.72 755.065 2204.51 754.515 2214.16 754.178 2223.64 754.054Z" fill-rule="evenodd"/></g></svg>
